<svg width="13" height="12" fill="none" xmlns="http://www.w3.org/2000/svg"><path d="M12.446 10.91H1.54a.545.545 0 100 1.09h10.904a.545.545 0 000-1.09zM2.225 9.49a.545.545 0 000 1.091h9.541a.546.546 0 000-1.091h-.136V4.58h.136a.272.272 0 100-.545H2.225a.272.272 0 100 .545h.136v4.91h-.136zm8.314-4.91v4.91H8.904V4.58h1.635zm-2.726 0v4.91H6.178V4.58h1.635zm-4.361 0h1.635v4.91H3.452V4.58zM1.541 3.545h10.91a.545.545 0 00.177-1.062L7.218.048a.546.546 0 00-.448 0L1.318 2.502a.545.545 0 00.223 1.043z" fill="#C9C9C9"/></svg>