<svg width="1200" height="368" fill="none" xmlns="http://www.w3.org/2000/svg"><mask id="a" style="mask-type:alpha" maskUnits="userSpaceOnUse" x="0" y="0" width="1200" height="368"><path fill="#0D0F5A" d="M0 0h1200v368H0z"/></mask><g mask="url(#a)"><path d="M895.613 289.343c-62.194-53.91-68.791-147.893-14.735-209.919 54.056-62.025 50.413 43.708 112.607 97.618 62.195 53.909 166.675 35.581 112.615 97.606-54.05 62.025-148.293 68.604-210.487 14.695z" fill="#1A1EA9"/><path opacity=".3" d="M546.099 277.295c106.647-47.393 231.625.407 279.147 106.765 47.522 106.358-86.458 38.41-193.105 85.803-106.647 47.393-145.575 192.18-193.097 85.822-47.522-106.357.409-230.997 107.055-278.39z" fill="#158FED"/><path d="M237.84 9.772C165.482 56.868 68.552 36.544 21.336-35.605c-5.953-9.097-9.215-16.117-10.54-21.535-1.295-5.3-.665-8.722.745-11.18 1.49-2.594 4.345-4.989 9.16-7.187 4.807-2.194 11.042-3.956 18.59-5.59 6.304-1.365 13.274-2.59 20.83-3.918 1.47-.258 2.964-.52 4.478-.788 9.237-1.635 19.174-3.465 29.356-5.865 20.348-4.796 41.93-11.923 61.403-24.598 19.474-12.675 34.704-29.507 47.298-46.152 6.301-8.329 11.981-16.664 17.201-24.439l2.527-3.77c4.26-6.364 8.191-12.233 11.981-17.439 4.538-6.233 8.666-11.215 12.615-14.719 3.956-3.512 7.304-5.155 10.284-5.47 2.824-.298 6.218.505 10.562 3.821 4.44 3.39 9.57 9.194 15.523 18.291 47.216 72.149 26.848 168.82-45.509 215.915z" stroke="#158FED" stroke-width="11"/><path d="M567.429 376.599c-166.14 108.137-388.724 61.48-497.153-104.209-13.559-20.719-21.597-37.59-24.987-51.466-3.388-13.864-2.129-24.707 2.869-33.417 5.005-8.723 13.802-15.382 25.641-20.786 11.839-5.403 26.671-9.529 43.683-13.211 14.249-3.085 30.004-5.853 46.786-8.802 3.252-.572 6.542-1.15 9.868-1.738 20.482-3.626 42.284-7.643 64.56-12.893 44.552-10.501 91.025-25.937 132.686-53.053 41.662-27.116 74.539-63.328 102.113-99.772 13.787-18.222 26.251-36.508 37.824-53.746 1.88-2.8 3.736-5.572 5.569-8.31 9.463-14.133 18.347-27.401 26.914-39.167 10.228-14.048 19.986-25.927 29.712-34.56 9.726-8.632 19.38-13.982 29.402-15.04 10.007-1.056 20.465 2.16 31.827 10.834 11.371 8.681 23.621 22.812 37.18 43.53 108.43 165.69 61.647 387.669-104.494 495.806z" stroke="#158FED"/><path opacity=".5" d="M1097.73 127.47c112.16-35.353 231.83 26.671 267.28 138.533 4.43 13.991 6.32 24.889 6.04 33.328-.28 8.427-2.72 14.37-6.92 18.509-4.22 4.149-10.27 6.545-17.88 7.748-7.61 1.202-16.73 1.202-27.04.601-8.63-.504-18.08-1.427-28.14-2.411l-5.92-.577c-12.29-1.186-25.4-2.358-38.99-2.901-27.16-1.086-56.22.345-84.4 9.228-28.19 8.884-52.8 24.369-74.4 40.824-10.8 8.227-20.85 16.7-30.23 24.714-1.52 1.302-3.02 2.592-4.51 3.866-7.67 6.574-14.87 12.742-21.64 18.103-8.1 6.4-15.56 11.628-22.48 15.006s-13.253 4.883-19.093 3.903c-5.825-.978-11.248-4.443-16.333-11.179-5.092-6.745-9.826-16.747-14.259-30.738-35.449-111.862 26.742-231.204 138.915-266.557z" stroke="#FFC44D"/></g></svg>