<svg width="115" height="56" fill="none" xmlns="http://www.w3.org/2000/svg"><rect x="16.5" y="10.5" width="82" height="24" rx="12" fill="#FFC774" stroke="#FFC774"/><rect x=".5" y=".5" width="114" height="45" rx="15.5" stroke="#F7F8FA"/><rect x="9.5" y="5.5" width="97" height="34" rx="14.5" stroke="#EAEAEA"/><path d="M65.108 31.95a1 1 0 011.568-.861L82.25 41.884c.741.514.476 1.67-.415 1.81l-6.053.953a7 7 0 00-4.158 2.28l-4.06 4.596c-.597.676-1.714.277-1.747-.625l-.708-18.949z" stroke="#0D0F5A" stroke-opacity=".5" stroke-width="2"/><path opacity=".7" d="M33.87 25.42c-.487.473-1.093.71-1.82.71-.727 0-1.333-.237-1.82-.71-.487-.473-.73-1.073-.73-1.8 0-.727.24-1.323.72-1.79.487-.467 1.097-.7 1.83-.7.733 0 1.343.233 1.83.7.487.467.73 1.063.73 1.79 0 .727-.247 1.327-.74 1.8zm-2.98-.58c.287.333.673.5 1.16.5.487 0 .87-.167 1.15-.5.287-.34.43-.747.43-1.22s-.143-.877-.43-1.21c-.28-.333-.663-.5-1.15-.5-.487 0-.873.167-1.16.5-.28.333-.42.737-.42 1.21s.14.88.42 1.22zM37.796 26v-3.97h-1.61v-.77h4.16v.77h-1.61V26h-.94zm4.56 0v-4.74h4.2V26h-.94v-3.97h-2.32V26h-.94zm6.821 2.4v-7.14h.92V22h.03c.16-.26.39-.47.69-.63.3-.16.64-.24 1.02-.24.694 0 1.26.24 1.7.72.447.473.67 1.063.67 1.77 0 .713-.22 1.31-.66 1.79-.44.48-1.016.72-1.73.72-.34 0-.66-.073-.96-.22a1.84 1.84 0 01-.71-.62h-.03v3.11h-.94zm2.48-3.06c.494 0 .88-.167 1.16-.5.28-.34.42-.747.42-1.22s-.14-.877-.42-1.21c-.28-.333-.666-.5-1.16-.5-.466 0-.85.17-1.15.51-.3.34-.45.743-.45 1.21 0 .467.15.87.45 1.21.3.333.684.5 1.15.5zm6.228.78c-.2 0-.397-.027-.59-.08a2.117 2.117 0 01-.55-.24 1.19 1.19 0 01-.42-.45 1.44 1.44 0 01-.16-.69 1.299 1.299 0 01.69-1.18c.2-.113.453-.2.76-.26.313-.067.607-.11.88-.13.28-.02.603-.03.97-.03v-.13c0-.34-.107-.597-.32-.77-.207-.18-.49-.27-.85-.27-.533 0-.983.183-1.35.55l-.5-.6c.493-.473 1.14-.71 1.94-.71.653 0 1.147.173 1.48.52.333.34.5.787.5 1.34v2.07c0 .413.023.727.07.94h-.85a2.956 2.956 0 01-.08-.68h-.03c-.353.533-.883.8-1.59.8zm.21-.74c.427 0 .76-.127 1-.38.247-.26.37-.597.37-1.01v-.25h-.23c-1.407 0-2.11.3-2.11.9 0 .26.093.45.28.57.187.113.417.17.69.17zm4.84.62v-4.74h2.33c.16 0 .31.013.45.04.147.02.29.06.43.12.147.053.27.127.37.22.107.087.19.203.25.35.067.147.1.313.1.5a1.01 1.01 0 01-.82 1v.02c.307.04.557.163.75.37.193.2.29.463.29.79 0 .413-.163.74-.49.98-.32.233-.75.35-1.29.35h-2.37zm.94-.75h1.28c.647 0 .97-.22.97-.66 0-.447-.307-.67-.92-.67h-1.33v1.33zm0-2.04h1.31c.213 0 .393-.05.54-.15.147-.1.22-.253.22-.46 0-.407-.287-.61-.86-.61h-1.21v1.22zM69.394 26v-4.74h.94v3.42h.01l2.43-3.42h1.03V26h-.94v-3.43h-.02L70.424 26h-1.03zm8.025 0v-3.97h-1.61v-.77h4.16v.77h-1.61V26h-.94zm4.56 0v-4.74h.94v1.72H84c.588 0 1.048.13 1.38.39.34.253.51.627.51 1.12 0 .487-.166.86-.5 1.12-.332.26-.792.39-1.38.39h-2.03zm.94-.75h.97c.7 0 1.05-.25 1.05-.75 0-.52-.35-.78-1.05-.78h-.97v1.53z" fill="#232323"/></svg>