<svg width="64" height="70" fill="none" xmlns="http://www.w3.org/2000/svg"><rect width="57.353" height="30.376" rx="4" transform="matrix(.99068 .1362 -.14087 .99003 5.378 31.08)" fill="#C9C9C9" stroke="#EAEAEA" stroke-width="3"/><path fill="#FFC774" d="M14.183.531l48.077 6.61-8.1 56.925-48.077-6.61z"/><path d="M4.91 34.37c.212-1.493 1.937-2.23 3.158-1.35L28.59 47.818c1.3.938 1.014 2.95-.497 3.5L4.227 60.014c-1.42.517-2.873-.658-2.66-2.15L4.91 34.37zm53.477 31.304c-.213 1.493-1.938 2.23-3.158 1.35L34.706 52.226c-1.3-.937-1.013-2.95.498-3.5L59.07 40.03c1.42-.517 2.872.658 2.66 2.15l-3.343 23.494z" fill="#fff"/><path d="M3.292 61.681L32 47.062l23.525 21.8-52.232-7.18z" fill="#fff" stroke="#EAEAEA" stroke-width="2"/></svg>