<svg width="104" height="76" fill="none" xmlns="http://www.w3.org/2000/svg"><path d="M11.99 38.328c-5.193-6.884-2.26-16.814 5.86-19.835l27.656-10.29a13.016 13.016 0 0112.35 1.78L86.854 31.76c8.191 6.151 6.261 18.896-3.393 22.412L45.81 67.883c-5.372 1.956-11.39.187-14.817-4.357L11.99 38.328z" fill="#fff"/><path fill-rule="evenodd" clip-rule="evenodd" d="M46.109 9.813l-27.657 10.29c-7.036 2.619-9.579 11.225-5.079 17.191l19.005 25.198c2.97 3.938 8.185 5.472 12.84 3.776l37.651-13.71c8.368-3.048 10.04-14.094 2.941-19.425L56.812 11.356A11.28 11.28 0 0046.11 9.813zm-28.26 8.68c-8.119 3.02-11.052 12.95-5.86 19.835l19.004 25.198c3.427 4.544 9.445 6.313 14.817 4.357l37.65-13.71c9.655-3.517 11.585-16.262 3.394-22.413L57.856 9.982a13.016 13.016 0 00-12.35-1.78L17.849 18.494z" fill="#EAEAEA"/><path fill-rule="evenodd" clip-rule="evenodd" d="M45.946 2.822L8.701 16.677C1.074 19.514-1.678 28.85 3.203 35.324l25.688 34.077c3.221 4.273 8.876 5.94 13.922 4.102L93.557 55.03c9.069-3.302 10.878-15.284 3.18-21.07L57.55 4.5a12.225 12.225 0 00-11.604-1.679zM8.397 15.866c-8.171 3.04-11.12 13.041-5.89 19.979L28.195 69.92c3.451 4.579 9.51 6.364 14.916 4.396l50.744-18.474c9.717-3.538 11.655-16.376 3.407-22.576L58.075 3.809a13.098 13.098 0 00-12.433-1.798L8.397 15.866z" fill="#F7F8FA"/><path d="M73.966 30.592L72.58 31.62a9.644 9.644 0 00-1.668-.643l-.323-1.69a1.493 1.493 0 00-1.509-1.212l-2.136.05a1.491 1.491 0 00-1.447 1.276l-.247 1.706a9.538 9.538 0 00-1.693.75l-1.413-.953a1.501 1.501 0 00-1.928.205l-1.474 1.539a1.488 1.488 0 00-.116 1.928l1.043 1.398a9.328 9.328 0 00-.635 1.665l-1.688.315a1.49 1.49 0 00-.804.436 1.47 1.47 0 00-.413 1.067l.046 2.132a1.497 1.497 0 001.285 1.446l1.73.25c.193.567.439 1.108.734 1.626l-.957 1.409a1.489 1.489 0 00.206 1.92l1.544 1.47a1.502 1.502 0 001.935.115l1.403-1.04a9.406 9.406 0 001.671.633l.315 1.676a1.493 1.493 0 001.51 1.212l2.135-.05a1.49 1.49 0 001.448-1.276l.25-1.724a9.606 9.606 0 001.583-.702l1.428.968c.608.41 1.42.324 1.927-.206l1.478-1.541a1.49 1.49 0 00.116-1.929l-1.032-1.38c.267-.535.483-1.09.646-1.662l1.695-.322a1.49 1.49 0 001.217-1.504l-.05-2.128a1.497 1.497 0 00-1.285-1.446l-1.712-.246a9.502 9.502 0 00-.723-1.63l.97-1.423a1.488 1.488 0 00-.205-1.921l-1.544-1.47a1.483 1.483 0 00-1.928-.122z" fill="#0D0F5A" fill-opacity=".5"/><path d="M64.257 36.843a5.172 5.172 0 00.17 7.326A5.216 5.216 0 0071.78 44a5.172 5.172 0 00-.17-7.326 5.216 5.216 0 00-7.353.17z" fill="#fff"/><path d="M46.331 20.053l-2.127 1.58c-.825-.41-1.68-.74-2.562-.989l-.495-2.595a2.293 2.293 0 00-2.317-1.861l-3.28.076a2.289 2.289 0 00-2.223 1.96l-.38 2.621c-.901.3-1.773.683-2.6 1.152l-2.17-1.464a2.306 2.306 0 00-2.96.315l-2.264 2.362a2.286 2.286 0 00-.178 2.962l1.602 2.147a14.32 14.32 0 00-.975 2.557l-2.594.483a2.288 2.288 0 00-1.234.67 2.259 2.259 0 00-.634 1.639l.071 3.274a2.3 2.3 0 001.974 2.22l2.657.384c.296.87.673 1.702 1.126 2.498l-1.47 2.163c-.633.93-.5 2.173.317 2.95l2.37 2.255a2.306 2.306 0 002.973.178l2.154-1.597c.819.404 1.68.73 2.567.972l.484 2.574A2.293 2.293 0 0036.48 53.4l3.28-.076a2.289 2.289 0 002.223-1.96l.384-2.649a14.75 14.75 0 002.431-1.077l2.193 1.486a2.306 2.306 0 002.96-.315l2.27-2.368a2.287 2.287 0 00.178-2.962l-1.586-2.12c.41-.821.743-1.674.993-2.552l2.604-.494a2.288 2.288 0 001.234-.67 2.273 2.273 0 00.634-1.639l-.076-3.268a2.3 2.3 0 00-1.974-2.22l-2.63-.38a14.585 14.585 0 00-1.11-2.503l1.491-2.185c.634-.931.5-2.174-.316-2.95l-2.37-2.256a2.278 2.278 0 00-2.962-.19z" fill="#FFC774"/><path d="M31.685 29.475a8.19 8.19 0 00.27 11.6c3.286 3.126 8.504 3.005 11.64-.27a8.19 8.19 0 00-.27-11.6c-3.285-3.125-8.503-3.005-11.64.27z" fill="#fff"/></svg>