<svg width="112" height="112" fill="none" xmlns="http://www.w3.org/2000/svg"><path d="M18.27 61a43.123 43.123 0 01.377-16.122 42.25 42.25 0 016.256-14.743c2.992-4.438 6.792-8.216 11.182-11.118a38.556 38.556 0 0114.405-5.8 18.115 18.115 0 016.23-.292 4.397 4.397 0 013 1.671 6.024 6.024 0 01.91 3.427 26.395 26.395 0 01-.56 5.223c-.31 1.65-.72 3.458-1.16 5.38-.08.376-.17.763-.25 1.139-.53 2.36-1.09 4.889-1.53 7.521a50.828 50.828 0 00-.4 16.788 49.973 49.973 0 005.78 15.67c1.27 2.329 2.6 4.512 3.86 6.539l.61.982c1 1.671 2 3.217 2.82 4.67a25.283 25.283 0 012.2 4.637c.434 1.129.52 2.37.25 3.552A4.669 4.669 0 0170 92.757a18.458 18.458 0 01-6 1.911c-10.338 1.868-20.962-.63-29.538-6.944C25.887 81.411 20.063 71.798 18.27 61v0z" stroke="#EAEAEA"/><path d="M4.31 65.139a49.296 49.296 0 01.174-18.428 48.362 48.362 0 016.913-16.956c3.348-5.123 7.628-9.507 12.598-12.901A44.134 44.134 0 0140.36 9.97c24.54-4.836 3.75 20.778 8.38 46.414 4.63 25.635 32.92 41.577 8.38 46.413a43.304 43.304 0 01-17.64-.182 44.212 44.212 0 01-16.232-7.22c-4.904-3.498-9.1-7.97-12.35-13.161A48.447 48.447 0 014.31 65.139z" fill="#FFC774"/><path d="M60 38.74c4.625-7.273 11.826-12.33 20.019-14.058 8.193-1.727 16.708.015 23.671 4.845 14.5 10.06-7.8 12.274-17.43 27.432-9.63 15.158-2.91 37.524-17.41 27.464a32.256 32.256 0 01-8.738-9.06 33.744 33.744 0 01-4.751-11.865 34.378 34.378 0 01-.04-12.861 33.767 33.767 0 014.68-11.897z" fill="#FFC774"/><path d="M21.85 79.9v-6.143H8.77v-4.43l12-19.012h5.76v19.138h4v4.304h-4v6.142h-4.68zm0-10.447V56.207h-.08l-8 13.246h8.08zm30.7-19.138v4.513H41l-.28 6.393a12.31 12.31 0 013.28-.376c2.55-.108 5.048.786 7 2.507a8.522 8.522 0 012.132 3.096 8.863 8.863 0 01.628 3.757 10.242 10.242 0 01-.704 4.145 9.87 9.87 0 01-2.296 3.46c-2.01 1.905-4.648 2.923-7.36 2.841a10.24 10.24 0 01-6-1.713 9.648 9.648 0 01-3.6-4.763l4.36-1.672a5.622 5.622 0 002.092 2.882 5.23 5.23 0 003.337.962 4.886 4.886 0 002.084-.369 5.07 5.07 0 001.76-1.223 5.344 5.344 0 001.13-1.864 5.524 5.524 0 00.306-2.185 5.431 5.431 0 00-.404-2.477 5.201 5.201 0 00-1.466-1.994 7.166 7.166 0 00-4.45-1.379 13.719 13.719 0 00-6.55 1.63l.48-16.171h16.07zm7 29.584v-4.596l10.89-11.199c1.92-1.957 2.88-3.893 2.88-5.808a4.494 4.494 0 00-.318-1.8A4.332 4.332 0 0072 54.995a4.429 4.429 0 00-3.24-1.254 4.128 4.128 0 00-1.788.34 4.292 4.292 0 00-1.492 1.081A6.487 6.487 0 0064 58.797l-4.68-.752c.235-2.372 1.339-4.557 3.08-6.1 1.803-1.605 4.112-2.453 6.48-2.382a10.08 10.08 0 016.68 2.298 7.619 7.619 0 012.112 2.828 7.953 7.953 0 01.648 3.523 9.326 9.326 0 01-1.2 4.722 19.81 19.81 0 01-3.36 4.179l-8.16 8.19h12.76v4.596H59.55zM93.4 49.605a9.515 9.515 0 016.4 2.172 7.9 7.9 0 012.486 4.791 8.074 8.074 0 01-1.126 5.322 6.135 6.135 0 01-3.2 2.423v.084a6.984 6.984 0 013.858 2.625 7.534 7.534 0 011.462 4.562 8.47 8.47 0 01-.662 3.694 8.123 8.123 0 01-2.178 2.992c-1.984 1.65-4.466 2.51-7 2.423-2.56.087-5.067-.771-7.08-2.423a8.213 8.213 0 01-2.148-3.001 8.555 8.555 0 01-.653-3.685A7.253 7.253 0 0185 66.946a6.977 6.977 0 013.8-2.55v-.083a6.114 6.114 0 01-3.284-2.435 6.58 6.58 0 01-1.115-4.042 7.68 7.68 0 01.63-3.305A7.364 7.364 0 0187 51.86c1.786-1.548 4.05-2.364 6.37-2.298l.03.042zm0 4.178a3.923 3.923 0 00-1.615.265 4.059 4.059 0 00-1.385.905c-.377.393-.67.864-.863 1.381a4.172 4.172 0 00-.258 1.628 4.513 4.513 0 001.12 3.134 4.105 4.105 0 002.14 1.173 3.996 3.996 0 002.404-.267 4.21 4.21 0 001.855-1.618 4.48 4.48 0 00.681-2.422 3.984 3.984 0 00-.296-1.65 3.832 3.832 0 00-.944-1.359 4.055 4.055 0 00-1.315-.925 3.91 3.91 0 00-1.555-.328l.03.083zm0 12.745a4.74 4.74 0 00-1.896.344 4.908 4.908 0 00-1.625 1.076 4.855 4.855 0 00-1.068 1.663 5.03 5.03 0 00-.332 1.973 4.928 4.928 0 00.313 1.948c.235.62.592 1.18 1.047 1.645a4.971 4.971 0 003.56 1.338 4.75 4.75 0 003.48-1.338 4.628 4.628 0 001.08-1.635c.241-.62.35-1.289.32-1.958a4.89 4.89 0 00-.347-1.96 4.717 4.717 0 00-1.093-1.634 4.655 4.655 0 00-1.578-1.157 4.479 4.479 0 00-1.891-.389l.03.084zM45.74 41.424a2.633 2.633 0 01-.95.79c-.372.181-.78.268-1.19.255a2.73 2.73 0 01-1.163-.186 2.829 2.829 0 01-.99-.661 2.98 2.98 0 01-.65-1.024 3.085 3.085 0 01-.197-1.211 3.108 3.108 0 01.197-1.192c.143-.379.358-.724.633-1.012a2.91 2.91 0 01.998-.675 2.82 2.82 0 011.172-.203c.403-.001.802.088 1.17.261.364.163.681.422.92.752l-.63.48a1.502 1.502 0 00-.6-.553 1.596 1.596 0 00-.84-.23 1.925 1.925 0 00-.852.16c-.27.117-.511.294-.708.52a2.431 2.431 0 00-.59 1.692c-.023.623.189 1.23.59 1.692.195.22.434.395.7.51.266.116.552.17.84.159.296.01.59-.054.857-.189.266-.134.497-.335.673-.584l.61.449zm9.24.063v.804h-5.44v-.94L53 37.694c.29-.262.527-.582.699-.94A3.15 3.15 0 0054 35.605a1.63 1.63 0 00-.115-.668 1.566 1.566 0 00-.375-.554 1.736 1.736 0 00-1.165-.454c-.428 0-.841.161-1.165.454-.315.302-.528.7-.61 1.139l-.85-.178c.11-.616.43-1.169.9-1.556a2.55 2.55 0 011.7-.606 2.675 2.675 0 011.83.637c.25.216.45.49.584.8a2.3 2.3 0 01.186.986c.005.485-.116.961-.35 1.38a7.1 7.1 0 01-1 1.294l-3.06 3.134 4.47.074zm4.39-8.295c.469-.016.93.123 1.32.397.379.255.68.617.87 1.045.208.486.356.999.44 1.525.2 1.125.2 2.28 0 3.405a6.363 6.363 0 01-.45 1.484 2.52 2.52 0 01-.87 1.044 2.23 2.23 0 01-1.32.387 2.272 2.272 0 01-1.36-.355 2.61 2.61 0 01-.88-1.045 7.03 7.03 0 01-.44-1.462 10.368 10.368 0 01-.13-1.724c0-.458.027-.915.08-1.368.085-.443.21-.877.37-1.296.119-.373.29-.725.51-1.044.214-.293.487-.532.8-.7a2.175 2.175 0 011.06-.293zm0 .763c-.34-.008-.67.114-.93.344-.276.26-.48.592-.59.961-.14.4-.24.813-.3 1.233-.062.453-.092.91-.09 1.369-.002.457.028.915.09 1.368.061.42.161.833.3 1.233.115.361.319.685.59.94.263.222.592.34.93.334.332.007.655-.112.91-.334a2.1 2.1 0 00.6-.94c.14-.4.241-.812.3-1.233.07-.452.103-.91.1-1.368a8.728 8.728 0 00-.1-1.369 6.148 6.148 0 00-.3-1.233 2.1 2.1 0 00-.6-.96 1.306 1.306 0 00-.91-.345zm7.78-.544v8.88h-.86v-7.73l-1.54 1.368-.53-.627 2.16-1.86.77-.03zm7.46 0l-2.38 3.876a1.94 1.94 0 011.21-.324c.345-.01.689.054 1.01.188.32.134.611.336.854.593.243.257.433.563.558.9.125.336.182.696.168 1.056a2.79 2.79 0 01-.186 1.094 2.694 2.694 0 01-.594.922 2.928 2.928 0 01-2 .798c-.738 0-1.45-.284-2-.798a2.694 2.694 0 01-.594-.922 2.792 2.792 0 01-.186-1.094c.04-.863.306-1.698.77-2.413l2.32-3.896 1.05.02zm-2.7 4.868c-.346.392-.529.91-.51 1.442-.01.267.032.533.123.783.091.249.23.477.407.67.176.189.387.338.622.437.234.099.485.145.738.137a1.727 1.727 0 001.36-.574c.342-.398.532-.913.532-1.448 0-.534-.19-1.05-.532-1.447a1.809 1.809 0 00-.62-.443 1.74 1.74 0 00-.74-.142 1.77 1.77 0 00-.75.14 1.85 1.85 0 00-.63.445zm9 4.012V36.42h3.72v.72h-2.96v5.15h-.76zm7.47.146a2.797 2.797 0 01-1.156-.209 2.898 2.898 0 01-.984-.668 3.285 3.285 0 01-.84-2.205c0-.82.3-1.608.84-2.204a3.087 3.087 0 012.145-.877c.795 0 1.561.313 2.145.877.556.587.867 1.38.867 2.204 0 .826-.311 1.618-.867 2.205a2.891 2.891 0 01-1.01.682 2.789 2.789 0 01-1.19.195h.05zm0-.72c.29.012.578-.042.845-.157.268-.116.508-.29.705-.512.38-.474.59-1.074.59-1.693a2.71 2.71 0 00-.59-1.692 2.002 2.002 0 00-.703-.518 1.924 1.924 0 00-.847-.16 1.926 1.926 0 00-.867.168 2.006 2.006 0 00-.713.541 2.693 2.693 0 00-.589 1.688c0 .617.209 1.214.589 1.687.196.215.434.384.698.496.264.112.547.163.832.151h.05zm3.83 2.475V41.55h.64a5.931 5.931 0 00.9-3.572V36.42h4.09v5.13h.9v2.642h-.76v-1.901h-5v1.901h-.77zm1.57-2.643H97v-4.408h-2.5v1.044a6.993 6.993 0 01-.77 3.364h.05zm8 .888a2.232 2.232 0 01-1.35-.439 1.549 1.549 0 01-.456-.59 1.615 1.615 0 01-.134-.747 1.94 1.94 0 01.14-.762c.092-.226.245-.418.44-.554.19-.145.399-.261.62-.345a3.66 3.66 0 01.83-.198c.301-.047.605-.074.91-.084h1v-.188a1.421 1.421 0 00-.39-1.146 1.303 1.303 0 00-.514-.32 1.255 1.255 0 00-.596-.049 2.184 2.184 0 00-.903.165 2.268 2.268 0 00-.767.525l-.45-.564a2.979 2.979 0 011.019-.651 2.881 2.881 0 011.181-.185 2.247 2.247 0 011.58.554c.207.199.369.444.475.717.105.273.152.566.135.86v2.57c-.006.44.024.881.09 1.316h-.73a6.436 6.436 0 01-.08-.95 2.36 2.36 0 01-.926.835c-.375.188-.79.267-1.204.23h.08zm.22-.7c.245.012.489-.032.715-.13a1.66 1.66 0 00.595-.434c.328-.376.504-.87.49-1.379v-.438h-1.24a4.512 4.512 0 00-.9.156 1.5 1.5 0 00-.7.397.883.883 0 00-.191.302.92.92 0 00-.059.356c-.011.165.019.33.085.48.066.15.168.279.295.377.245.18.531.288.83.313h.08z" fill="#0D0F5A" fill-opacity=".5"/><mask id="a" style="mask-type:alpha" maskUnits="userSpaceOnUse" x="3" y="9" width="65" height="95"><path d="M4.311 65.139a49.296 49.296 0 01.174-18.428 48.361 48.361 0 016.913-16.956c3.347-5.123 7.628-9.507 12.598-12.901A44.133 44.133 0 0140.36 9.97c24.54-4.836 3.75 20.778 8.38 46.414 4.63 25.635 32.92 41.577 8.38 46.413a43.304 43.304 0 01-17.64-.182 44.212 44.212 0 01-16.232-7.22c-4.904-3.498-9.1-7.97-12.35-13.161A48.447 48.447 0 014.31 65.138z" fill="#FFC774"/></mask><g mask="url(#a)" fill="#0D0F5A" fill-opacity=".5"><path d="M21.85 79.9v-6.143H8.77v-4.43l12-19.012h5.76v19.138h4v4.304h-4v6.142h-4.68zm0-10.447V56.207h-.08l-8 13.246h8.08zm30.7-19.138v4.513H41l-.28 6.393a12.31 12.31 0 013.28-.376c2.55-.108 5.048.786 7 2.507a8.522 8.522 0 012.132 3.096 8.863 8.863 0 01.628 3.757 10.242 10.242 0 01-.704 4.145 9.87 9.87 0 01-2.296 3.46c-2.01 1.905-4.648 2.923-7.36 2.841a10.24 10.24 0 01-6-1.713 9.648 9.648 0 01-3.6-4.763l4.36-1.672a5.622 5.622 0 002.092 2.882 5.23 5.23 0 003.337.962 4.886 4.886 0 002.084-.369 5.07 5.07 0 001.76-1.223 5.344 5.344 0 001.13-1.864 5.524 5.524 0 00.306-2.185 5.431 5.431 0 00-.404-2.477 5.201 5.201 0 00-1.466-1.994 7.166 7.166 0 00-4.45-1.379 13.719 13.719 0 00-6.55 1.63l.48-16.171h16.07zm7 29.584v-4.596l10.89-11.199c1.92-1.957 2.88-3.893 2.88-5.808a4.494 4.494 0 00-.318-1.8A4.332 4.332 0 0072 54.995a4.429 4.429 0 00-3.24-1.254 4.128 4.128 0 00-1.788.34 4.292 4.292 0 00-1.492 1.081A6.487 6.487 0 0064 58.797l-4.68-.752c.235-2.372 1.339-4.557 3.08-6.1 1.803-1.605 4.112-2.453 6.48-2.382a10.08 10.08 0 016.68 2.298 7.619 7.619 0 012.112 2.828 7.953 7.953 0 01.648 3.523 9.326 9.326 0 01-1.2 4.722 19.81 19.81 0 01-3.36 4.179l-8.16 8.19h12.76v4.596H59.55zM93.4 49.605a9.515 9.515 0 016.4 2.172 7.9 7.9 0 012.486 4.791 8.074 8.074 0 01-1.126 5.322 6.135 6.135 0 01-3.2 2.423v.084a6.984 6.984 0 013.858 2.625 7.534 7.534 0 011.462 4.562 8.47 8.47 0 01-.662 3.694 8.123 8.123 0 01-2.178 2.992c-1.984 1.65-4.466 2.51-7 2.423-2.56.087-5.067-.771-7.08-2.423a8.213 8.213 0 01-2.148-3.001 8.555 8.555 0 01-.653-3.685A7.253 7.253 0 0185 66.946a6.977 6.977 0 013.8-2.55v-.083a6.114 6.114 0 01-3.284-2.435 6.58 6.58 0 01-1.115-4.042 7.68 7.68 0 01.63-3.305A7.364 7.364 0 0187 51.86c1.786-1.548 4.05-2.364 6.37-2.298l.03.042zm0 4.178a3.923 3.923 0 00-1.615.265 4.059 4.059 0 00-1.385.905c-.377.393-.67.864-.863 1.381a4.172 4.172 0 00-.258 1.628 4.513 4.513 0 001.12 3.134 4.105 4.105 0 002.14 1.173 3.996 3.996 0 002.404-.267 4.21 4.21 0 001.855-1.618 4.48 4.48 0 00.681-2.422 3.984 3.984 0 00-.296-1.65 3.832 3.832 0 00-.944-1.359 4.055 4.055 0 00-1.315-.925 3.91 3.91 0 00-1.555-.328l.03.083zm0 12.745a4.74 4.74 0 00-1.896.344 4.908 4.908 0 00-1.625 1.076 4.855 4.855 0 00-1.068 1.663 5.03 5.03 0 00-.332 1.973 4.928 4.928 0 00.313 1.948c.235.62.592 1.18 1.047 1.645a4.971 4.971 0 003.56 1.338 4.75 4.75 0 003.48-1.338 4.628 4.628 0 001.08-1.635c.241-.62.35-1.289.32-1.958a4.89 4.89 0 00-.347-1.96 4.717 4.717 0 00-1.093-1.634 4.655 4.655 0 00-1.578-1.157 4.479 4.479 0 00-1.891-.389l.03.084zM45.74 41.424a2.633 2.633 0 01-.95.79c-.372.181-.78.268-1.19.255a2.73 2.73 0 01-1.163-.186 2.829 2.829 0 01-.99-.661 2.98 2.98 0 01-.65-1.024 3.085 3.085 0 01-.197-1.211 3.108 3.108 0 01.197-1.192c.143-.379.358-.724.633-1.012a2.91 2.91 0 01.998-.675 2.82 2.82 0 011.172-.203c.403-.001.802.088 1.17.261.364.163.681.422.92.752l-.63.48a1.502 1.502 0 00-.6-.553 1.596 1.596 0 00-.84-.23 1.925 1.925 0 00-.852.16c-.27.117-.511.294-.708.52a2.431 2.431 0 00-.59 1.692c-.023.623.189 1.23.59 1.692.195.22.434.395.7.51.266.116.552.17.84.159.296.01.59-.054.857-.189.266-.134.497-.335.673-.584l.61.449zm9.24.063v.804h-5.44v-.94L53 37.694c.29-.262.527-.582.699-.94A3.15 3.15 0 0054 35.605a1.63 1.63 0 00-.115-.668 1.566 1.566 0 00-.375-.554 1.736 1.736 0 00-1.165-.454c-.428 0-.841.161-1.165.454-.315.302-.528.7-.61 1.139l-.85-.178c.11-.616.43-1.169.9-1.556a2.55 2.55 0 011.7-.606 2.675 2.675 0 011.83.637c.25.216.45.49.584.8a2.3 2.3 0 01.186.986c.005.485-.116.961-.35 1.38a7.1 7.1 0 01-1 1.294l-3.06 3.134 4.47.074zm4.39-8.295c.469-.016.93.123 1.32.397.379.255.68.617.87 1.045.208.486.356.999.44 1.525.2 1.125.2 2.28 0 3.405a6.363 6.363 0 01-.45 1.484 2.52 2.52 0 01-.87 1.044 2.23 2.23 0 01-1.32.387 2.272 2.272 0 01-1.36-.355 2.61 2.61 0 01-.88-1.045 7.03 7.03 0 01-.44-1.462 10.368 10.368 0 01-.13-1.724c0-.458.027-.915.08-1.368.085-.443.21-.877.37-1.296.119-.373.29-.725.51-1.044.214-.293.487-.532.8-.7a2.175 2.175 0 011.06-.293zm0 .763c-.34-.008-.67.114-.93.344-.276.26-.48.592-.59.961-.14.4-.24.813-.3 1.233-.062.453-.092.91-.09 1.369-.002.457.028.915.09 1.368.061.42.161.833.3 1.233.115.361.319.685.59.94.263.222.592.34.93.334.332.007.655-.112.91-.334a2.1 2.1 0 00.6-.94c.14-.4.241-.812.3-1.233.07-.452.103-.91.1-1.368a8.728 8.728 0 00-.1-1.369 6.148 6.148 0 00-.3-1.233 2.1 2.1 0 00-.6-.96 1.306 1.306 0 00-.91-.345zm7.78-.544v8.88h-.86v-7.73l-1.54 1.368-.53-.627 2.16-1.86.77-.03zm7.46 0l-2.38 3.876a1.94 1.94 0 011.21-.324c.345-.01.689.054 1.01.188.32.134.611.336.854.593.243.257.433.563.558.9.125.336.182.696.168 1.056a2.79 2.79 0 01-.186 1.094 2.694 2.694 0 01-.594.922 2.928 2.928 0 01-2 .798c-.738 0-1.45-.284-2-.798a2.694 2.694 0 01-.594-.922 2.792 2.792 0 01-.186-1.094c.04-.863.306-1.698.77-2.413l2.32-3.896 1.05.02zm-2.7 4.868c-.346.392-.529.91-.51 1.442-.01.267.032.533.123.783.091.249.23.477.407.67.176.189.387.338.622.437.234.099.485.145.738.137a1.727 1.727 0 001.36-.574c.342-.398.532-.913.532-1.448 0-.534-.19-1.05-.532-1.447a1.809 1.809 0 00-.62-.443 1.74 1.74 0 00-.74-.142 1.77 1.77 0 00-.75.14 1.85 1.85 0 00-.63.445zm9 4.012V36.42h3.72v.72h-2.96v5.15h-.76zm7.47.146a2.797 2.797 0 01-1.156-.209 2.898 2.898 0 01-.984-.668 3.285 3.285 0 01-.84-2.205c0-.82.3-1.608.84-2.204a3.087 3.087 0 012.145-.877c.795 0 1.561.313 2.145.877.556.587.867 1.38.867 2.204 0 .826-.311 1.618-.867 2.205a2.891 2.891 0 01-1.01.682 2.789 2.789 0 01-1.19.195h.05zm0-.72c.29.012.578-.042.845-.157.268-.116.508-.29.705-.512.38-.474.59-1.074.59-1.693a2.71 2.71 0 00-.59-1.692 2.002 2.002 0 00-.703-.518 1.924 1.924 0 00-.847-.16 1.926 1.926 0 00-.867.168 2.006 2.006 0 00-.713.541 2.693 2.693 0 00-.589 1.688c0 .617.209 1.214.589 1.687.196.215.434.384.698.496.264.112.547.163.832.151h.05zm3.83 2.475V41.55h.64a5.931 5.931 0 00.9-3.572V36.42h4.09v5.13h.9v2.642h-.76v-1.901h-5v1.901h-.77zm1.57-2.643H97v-4.408h-2.5v1.044a6.993 6.993 0 01-.77 3.364h.05zm8 .888a2.232 2.232 0 01-1.35-.439 1.549 1.549 0 01-.456-.59 1.615 1.615 0 01-.134-.747 1.94 1.94 0 01.14-.762c.092-.226.245-.418.44-.554.19-.145.399-.261.62-.345a3.66 3.66 0 01.83-.198c.301-.047.605-.074.91-.084h1v-.188a1.421 1.421 0 00-.39-1.146 1.303 1.303 0 00-.514-.32 1.255 1.255 0 00-.596-.049 2.184 2.184 0 00-.903.165 2.268 2.268 0 00-.767.525l-.45-.564a2.979 2.979 0 011.019-.651 2.881 2.881 0 011.181-.185 2.247 2.247 0 011.58.554c.207.199.369.444.475.717.105.273.152.566.135.86v2.57c-.006.44.024.881.09 1.316h-.73a6.436 6.436 0 01-.08-.95 2.36 2.36 0 01-.926.835c-.375.188-.79.267-1.204.23h.08zm.22-.7c.245.012.489-.032.715-.13a1.66 1.66 0 00.595-.434c.328-.376.504-.87.49-1.379v-.438h-1.24a4.512 4.512 0 00-.9.156 1.5 1.5 0 00-.7.397.883.883 0 00-.191.302.92.92 0 00-.059.356c-.011.165.019.33.085.48.066.15.168.279.295.377.245.18.531.288.83.313h.08z"/></g><mask id="b" style="mask-type:alpha" maskUnits="userSpaceOnUse" x="54" y="24" width="55" height="63"><path d="M60 38.74c4.625-7.273 11.826-12.33 20.019-14.058 8.193-1.727 16.708.015 23.671 4.845 14.5 10.06-7.8 12.274-17.43 27.432-9.63 15.158-2.91 37.524-17.41 27.464a32.256 32.256 0 01-8.738-9.06 33.744 33.744 0 01-4.751-11.865 34.378 34.378 0 01-.04-12.861 33.767 33.767 0 014.68-11.897z" fill="#FFC774"/></mask><g mask="url(#b)" fill="#0D0F5A" fill-opacity=".5"><path d="M21.85 79.9v-6.143H8.77v-4.43l12-19.012h5.76v19.138h4v4.304h-4v6.142h-4.68zm0-10.447V56.207h-.08l-8 13.246h8.08zm30.7-19.138v4.513H41l-.28 6.393a12.31 12.31 0 013.28-.376c2.55-.108 5.048.786 7 2.507a8.522 8.522 0 012.132 3.096 8.863 8.863 0 01.628 3.757 10.242 10.242 0 01-.704 4.145 9.87 9.87 0 01-2.296 3.46c-2.01 1.905-4.648 2.923-7.36 2.841a10.24 10.24 0 01-6-1.713 9.648 9.648 0 01-3.6-4.763l4.36-1.672a5.622 5.622 0 002.092 2.882 5.23 5.23 0 003.337.962 4.886 4.886 0 002.084-.369 5.07 5.07 0 001.76-1.223 5.344 5.344 0 001.13-1.864 5.524 5.524 0 00.306-2.185 5.431 5.431 0 00-.404-2.477 5.201 5.201 0 00-1.466-1.994 7.166 7.166 0 00-4.45-1.379 13.719 13.719 0 00-6.55 1.63l.48-16.171h16.07zm7 29.584v-4.596l10.89-11.199c1.92-1.957 2.88-3.893 2.88-5.808a4.494 4.494 0 00-.318-1.8A4.332 4.332 0 0072 54.995a4.429 4.429 0 00-3.24-1.254 4.128 4.128 0 00-1.788.34 4.292 4.292 0 00-1.492 1.081A6.487 6.487 0 0064 58.797l-4.68-.752c.235-2.372 1.339-4.557 3.08-6.1 1.803-1.605 4.112-2.453 6.48-2.382a10.08 10.08 0 016.68 2.298 7.619 7.619 0 012.112 2.828 7.953 7.953 0 01.648 3.523 9.326 9.326 0 01-1.2 4.722 19.81 19.81 0 01-3.36 4.179l-8.16 8.19h12.76v4.596H59.55zM93.4 49.605a9.515 9.515 0 016.4 2.172 7.9 7.9 0 012.486 4.791 8.074 8.074 0 01-1.126 5.322 6.135 6.135 0 01-3.2 2.423v.084a6.984 6.984 0 013.858 2.625 7.534 7.534 0 011.462 4.562 8.47 8.47 0 01-.662 3.694 8.123 8.123 0 01-2.178 2.992c-1.984 1.65-4.466 2.51-7 2.423-2.56.087-5.067-.771-7.08-2.423a8.213 8.213 0 01-2.148-3.001 8.555 8.555 0 01-.653-3.685A7.253 7.253 0 0185 66.946a6.977 6.977 0 013.8-2.55v-.083a6.114 6.114 0 01-3.284-2.435 6.58 6.58 0 01-1.115-4.042 7.68 7.68 0 01.63-3.305A7.364 7.364 0 0187 51.86c1.786-1.548 4.05-2.364 6.37-2.298l.03.042zm0 4.178a3.923 3.923 0 00-1.615.265 4.059 4.059 0 00-1.385.905c-.377.393-.67.864-.863 1.381a4.172 4.172 0 00-.258 1.628 4.513 4.513 0 001.12 3.134 4.105 4.105 0 002.14 1.173 3.996 3.996 0 002.404-.267 4.21 4.21 0 001.855-1.618 4.48 4.48 0 00.681-2.422 3.984 3.984 0 00-.296-1.65 3.832 3.832 0 00-.944-1.359 4.055 4.055 0 00-1.315-.925 3.91 3.91 0 00-1.555-.328l.03.083zm0 12.745a4.74 4.74 0 00-1.896.344 4.908 4.908 0 00-1.625 1.076 4.855 4.855 0 00-1.068 1.663 5.03 5.03 0 00-.332 1.973 4.928 4.928 0 00.313 1.948c.235.62.592 1.18 1.047 1.645a4.971 4.971 0 003.56 1.338 4.75 4.75 0 003.48-1.338 4.628 4.628 0 001.08-1.635c.241-.62.35-1.289.32-1.958a4.89 4.89 0 00-.347-1.96 4.717 4.717 0 00-1.093-1.634 4.655 4.655 0 00-1.578-1.157 4.479 4.479 0 00-1.891-.389l.03.084zM45.74 41.424a2.633 2.633 0 01-.95.79c-.372.181-.78.268-1.19.255a2.73 2.73 0 01-1.163-.186 2.829 2.829 0 01-.99-.661 2.98 2.98 0 01-.65-1.024 3.085 3.085 0 01-.197-1.211 3.108 3.108 0 01.197-1.192c.143-.379.358-.724.633-1.012a2.91 2.91 0 01.998-.675 2.82 2.82 0 011.172-.203c.403-.001.802.088 1.17.261.364.163.681.422.92.752l-.63.48a1.502 1.502 0 00-.6-.553 1.596 1.596 0 00-.84-.23 1.925 1.925 0 00-.852.16c-.27.117-.511.294-.708.52a2.431 2.431 0 00-.59 1.692c-.023.623.189 1.23.59 1.692.195.22.434.395.7.51.266.116.552.17.84.159.296.01.59-.054.857-.189.266-.134.497-.335.673-.584l.61.449zm9.24.063v.804h-5.44v-.94L53 37.694c.29-.262.527-.582.699-.94A3.15 3.15 0 0054 35.605a1.63 1.63 0 00-.115-.668 1.566 1.566 0 00-.375-.554 1.736 1.736 0 00-1.165-.454c-.428 0-.841.161-1.165.454-.315.302-.528.7-.61 1.139l-.85-.178c.11-.616.43-1.169.9-1.556a2.55 2.55 0 011.7-.606 2.675 2.675 0 011.83.637c.25.216.45.49.584.8a2.3 2.3 0 01.186.986c.005.485-.116.961-.35 1.38a7.1 7.1 0 01-1 1.294l-3.06 3.134 4.47.074zm4.39-8.295c.469-.016.93.123 1.32.397.379.255.68.617.87 1.045.208.486.356.999.44 1.525.2 1.125.2 2.28 0 3.405a6.363 6.363 0 01-.45 1.484 2.52 2.52 0 01-.87 1.044 2.23 2.23 0 01-1.32.387 2.272 2.272 0 01-1.36-.355 2.61 2.61 0 01-.88-1.045 7.03 7.03 0 01-.44-1.462 10.368 10.368 0 01-.13-1.724c0-.458.027-.915.08-1.368.085-.443.21-.877.37-1.296.119-.373.29-.725.51-1.044.214-.293.487-.532.8-.7a2.175 2.175 0 011.06-.293zm0 .763c-.34-.008-.67.114-.93.344-.276.26-.48.592-.59.961-.14.4-.24.813-.3 1.233-.062.453-.092.91-.09 1.369-.002.457.028.915.09 1.368.061.42.161.833.3 1.233.115.361.319.685.59.94.263.222.592.34.93.334.332.007.655-.112.91-.334a2.1 2.1 0 00.6-.94c.14-.4.241-.812.3-1.233.07-.452.103-.91.1-1.368a8.728 8.728 0 00-.1-1.369 6.148 6.148 0 00-.3-1.233 2.1 2.1 0 00-.6-.96 1.306 1.306 0 00-.91-.345zm7.78-.544v8.88h-.86v-7.73l-1.54 1.368-.53-.627 2.16-1.86.77-.03zm7.46 0l-2.38 3.876a1.94 1.94 0 011.21-.324c.345-.01.689.054 1.01.188.32.134.611.336.854.593.243.257.433.563.558.9.125.336.182.696.168 1.056a2.79 2.79 0 01-.186 1.094 2.694 2.694 0 01-.594.922 2.928 2.928 0 01-2 .798c-.738 0-1.45-.284-2-.798a2.694 2.694 0 01-.594-.922 2.792 2.792 0 01-.186-1.094c.04-.863.306-1.698.77-2.413l2.32-3.896 1.05.02zm-2.7 4.868c-.346.392-.529.91-.51 1.442-.01.267.032.533.123.783.091.249.23.477.407.67.176.189.387.338.622.437.234.099.485.145.738.137a1.727 1.727 0 001.36-.574c.342-.398.532-.913.532-1.448 0-.534-.19-1.05-.532-1.447a1.809 1.809 0 00-.62-.443 1.74 1.74 0 00-.74-.142 1.77 1.77 0 00-.75.14 1.85 1.85 0 00-.63.445zm9 4.012V36.42h3.72v.72h-2.96v5.15h-.76zm7.47.146a2.797 2.797 0 01-1.156-.209 2.898 2.898 0 01-.984-.668 3.285 3.285 0 01-.84-2.205c0-.82.3-1.608.84-2.204a3.087 3.087 0 012.145-.877c.795 0 1.561.313 2.145.877.556.587.867 1.38.867 2.204 0 .826-.311 1.618-.867 2.205a2.891 2.891 0 01-1.01.682 2.789 2.789 0 01-1.19.195h.05zm0-.72c.29.012.578-.042.845-.157.268-.116.508-.29.705-.512.38-.474.59-1.074.59-1.693a2.71 2.71 0 00-.59-1.692 2.002 2.002 0 00-.703-.518 1.924 1.924 0 00-.847-.16 1.926 1.926 0 00-.867.168 2.006 2.006 0 00-.713.541 2.693 2.693 0 00-.589 1.688c0 .617.209 1.214.589 1.687.196.215.434.384.698.496.264.112.547.163.832.151h.05zm3.83 2.475V41.55h.64a5.931 5.931 0 00.9-3.572V36.42h4.09v5.13h.9v2.642h-.76v-1.901h-5v1.901h-.77zm1.57-2.643H97v-4.408h-2.5v1.044a6.993 6.993 0 01-.77 3.364h.05zm8 .888a2.232 2.232 0 01-1.35-.439 1.549 1.549 0 01-.456-.59 1.615 1.615 0 01-.134-.747 1.94 1.94 0 01.14-.762c.092-.226.245-.418.44-.554.19-.145.399-.261.62-.345a3.66 3.66 0 01.83-.198c.301-.047.605-.074.91-.084h1v-.188a1.421 1.421 0 00-.39-1.146 1.303 1.303 0 00-.514-.32 1.255 1.255 0 00-.596-.049 2.184 2.184 0 00-.903.165 2.268 2.268 0 00-.767.525l-.45-.564a2.979 2.979 0 011.019-.651 2.881 2.881 0 011.181-.185 2.247 2.247 0 011.58.554c.207.199.369.444.475.717.105.273.152.566.135.86v2.57c-.006.44.024.881.09 1.316h-.73a6.436 6.436 0 01-.08-.95 2.36 2.36 0 01-.926.835c-.375.188-.79.267-1.204.23h.08zm.22-.7c.245.012.489-.032.715-.13a1.66 1.66 0 00.595-.434c.328-.376.504-.87.49-1.379v-.438h-1.24a4.512 4.512 0 00-.9.156 1.5 1.5 0 00-.7.397.883.883 0 00-.191.302.92.92 0 00-.059.356c-.011.165.019.33.085.48.066.15.168.279.295.377.245.18.531.288.83.313h.08z"/></g></svg>