<svg width="112" height="112" fill="none" xmlns="http://www.w3.org/2000/svg"><path d="M77.159 94.24a54.25 54.25 0 01-71.75-27.16 26.51 26.51 0 01-2.51-8.2 6.25 6.25 0 011.1-4.61 7.65 7.65 0 014.1-2.37 33.602 33.602 0 016.78-.9c2.21-.13 4.64-.18 7.24-.23h1.53c3.17-.06 6.56-.16 10.06-.43 7-.54 14.41-1.79 21.4-4.94 6.99-3.15 12.89-7.97 17.89-12.85 2.52-2.44 4.84-4.91 7-7.25l1-1.12c1.76-1.92 3.41-3.7 5-5.27a32.792 32.792 0 015.2-4.45 7.65 7.65 0 014.46-1.46 6.16 6.16 0 014.19 2.22 26.377 26.377 0 014.48 7.31 54.25 54.25 0 01-27.17 71.71z" stroke="#EAEAEA"/><path d="M35.578 91.15a42.65 42.65 0 01-23.79-55.45 20.608 20.608 0 013.26-5.88 4.76 4.76 0 013.14-1.82 5.94 5.94 0 013.51 1 25.88 25.88 0 014.23 3.31c1.28 1.19 2.64 2.53 4.09 4l.85.85c1.78 1.77 3.69 3.65 5.76 5.48a50.38 50.38 0 0014.56 9.48 50.521 50.521 0 0017.08 3.17c2.77.09 5.45 0 8 0h1.21c2 0 4-.1 5.7-.07 1.797-.017 3.59.158 5.35.52a5.88 5.88 0 013.24 1.68 4.738 4.738 0 011 3.51 20.402 20.402 0 01-1.77 6.44 42.66 42.66 0 01-55.42 23.78z" fill="#FFC774"/><path d="M69.429 72.212v-5.88h4v-4.12h-4v-6.93h-1.16c-1.17 0-2.36-.11-3.56-.21v7.17h-8.12l4.77-7.54c-1.43-.19-2.87-.45-4.31-.78l-5.42 8.2v4.24h13.08v5.88l4.72-.03zm-30.499-.003l7.08-11c.864-1.331 1.6-2.74 2.2-4.21a11.23 11.23 0 00.72-4.12c0-.637-.057-1.273-.17-1.9a52.099 52.099 0 01-11.41-7.76 10.17 10.17 0 00-6.18 2.7 9.31 9.31 0 00-2.92 7.16 8.95 8.95 0 009 9.08 7.619 7.619 0 003-.52l-7.16 10.57h5.84zm-.4-13.84a5.11 5.11 0 01-3.88-1.56 5.51 5.51 0 01-1.48-4 5.67 5.67 0 011.48-4.08 5.19 5.19 0 014-1.6 5.08 5.08 0 013.92 1.64 5.62 5.62 0 011.52 4 5.47 5.47 0 01-1.56 4 5.27 5.27 0 01-4 1.6z" fill="#0D0F5A" fill-opacity=".5"/><path d="M38.931 72.208h-5.84l7.28-10.52a7.619 7.619 0 01-3 .52 8.95 8.95 0 01-9-9.08 9.31 9.31 0 012.92-7.16 10.43 10.43 0 017.4-2.76 10.33 10.33 0 017.31 2.79 9.141 9.141 0 013 6.92 11.238 11.238 0 01-.79 4.08 25.243 25.243 0 01-2.21 4.25l-7.07 10.96zm5.12-19.44a5.62 5.62 0 00-1.52-4 5.08 5.08 0 00-3.92-1.64 5.192 5.192 0 00-4 1.6 5.67 5.67 0 00-1.48 4.08 5.51 5.51 0 001.48 4 5.109 5.109 0 003.88 1.56 5.27 5.27 0 004-1.56 5.47 5.47 0 001.56-4.04zm20.66 19.44v-5.88h-13.08v-4.24l12-18.2h5.76v18.32h4v4.12h-4v5.88h-4.68zm0-10v-12.68h-.08l-8 12.68h8.08zM83.28 36.12a2.67 2.67 0 011.45 1.58 2.7 2.7 0 01-.09 2.16A2.74 2.74 0 0183 41.3a2.768 2.768 0 01-3.61-1.67 2.68 2.68 0 01.09-2.15A2.76 2.76 0 0181.12 36a2.7 2.7 0 012.16.12zm.48 3.33a1.751 1.751 0 00.06-1.45 1.78 1.78 0 00-1-1.05 1.9 1.9 0 00-2.46.9 1.85 1.85 0 00.89 2.47 1.84 1.84 0 001.42 0 1.8 1.8 0 001.09-.87zm7.7.19a2.86 2.86 0 011.36 3.75 2.82 2.82 0 01-5.21-.23A2.68 2.68 0 0187.7 41a2.86 2.86 0 013.76-1.37v.01zm.48 3.36a1.749 1.749 0 00.06-1.44 1.78 1.78 0 00-1-1.05 1.88 1.88 0 00-2.642 1.603 1.728 1.728 0 001.112 1.717 1.89 1.89 0 002.47-.83zm-4-9.3l-2.7 13.63-.93-.12 2.71-13.64.92.13z" fill="#0D0F5A" fill-opacity=".5"/></svg>