<svg width="112" height="112" fill="none" xmlns="http://www.w3.org/2000/svg"><path d="M51.93 83.159a45.22 45.22 0 01-30.86-56c6.93-23.99 19.45 5.63 43.43 12.57s50.38-11.41 43.44 12.57a45.222 45.222 0 01-56.01 30.86z" fill="#FFC774"/><path d="M19.06 72.498h-5.84l7.28-10.5a7.45 7.45 0 01-3 .52 8.95 8.95 0 01-9-9.08 9.31 9.31 0 012.92-7.16 10.43 10.43 0 017.4-2.76 10.33 10.33 0 017.4 2.8 9.16 9.16 0 013 6.92 11.238 11.238 0 01-.72 4.12 25.239 25.239 0 01-2.2 4.24l-7.24 10.9zm5.12-19.44a5.62 5.62 0 00-1.52-4 5.11 5.11 0 00-3.92-1.64 5.19 5.19 0 00-4 1.6 5.669 5.669 0 00-1.48 4.08 5.51 5.51 0 001.48 4 5.112 5.112 0 003.88 1.56 5.27 5.27 0 004-1.56 5.47 5.47 0 001.56-4.04zm26.33-5.64c1.74 2.667 2.607 6.307 2.6 10.92-.007 4.613-.873 8.253-2.6 10.92a8.3 8.3 0 01-7.36 4 8.44 8.44 0 01-7.44-4c-1.733-2.667-2.6-6.307-2.6-10.92 0-4.613.867-8.253 2.6-10.92a8.44 8.44 0 017.44-4 8.3 8.3 0 017.36 4zM48 61.738a28.996 28.996 0 000-6.8 21.143 21.143 0 00-.72-3.48 6.25 6.25 0 00-1.56-2.88 3.33 3.33 0 00-2.56-1.12 3.48 3.48 0 00-2.6 1.12 6.59 6.59 0 00-1.56 2.88 23.454 23.454 0 00-.72 3.48 28.788 28.788 0 00-.2 3.4c.001 1.136.068 2.272.2 3.4a23.44 23.44 0 00.72 3.48 6.61 6.61 0 001.6 2.84 3.551 3.551 0 002.6 1.08 3.4 3.4 0 002.56-1.08 6.25 6.25 0 001.56-2.88c.32-1.126.548-2.277.68-3.44zm26.93-14.32c1.727 2.667 2.593 6.307 2.6 10.92.007 4.613-.86 8.253-2.6 10.92a8.32 8.32 0 01-7.36 4 8.44 8.44 0 01-7.44-4c-1.74-2.667-2.607-6.307-2.6-10.92.007-4.613.873-8.253 2.6-10.92a8.44 8.44 0 017.44-4 8.32 8.32 0 017.36 4zm-2.52 14.32a28.996 28.996 0 000-6.8 23.44 23.44 0 00-.72-3.48 6.25 6.25 0 00-1.56-2.88 3.361 3.361 0 00-2.56-1.12 3.46 3.46 0 00-2.57 1.12 6.49 6.49 0 00-1.6 2.88 21.153 21.153 0 00-.72 3.48 26.795 26.795 0 00-.2 3.4 27.364 27.364 0 00.2 3.4c.142 1.178.383 2.342.72 3.48a6.511 6.511 0 001.6 2.84 3.53 3.53 0 002.6 1.08 3.43 3.43 0 002.56-1.08 6.25 6.25 0 001.56-2.88 23.78 23.78 0 00.69-3.44z" fill="#0D0F5A" fill-opacity=".5"/><path d="M66.73 91.22A46.18 46.18 0 015.66 68.1a22.51 22.51 0 01-2.13-7 5.29 5.29 0 01.94-3.93 6.6 6.6 0 013.49-2c1.89-.469 3.824-.74 5.77-.81 1.88-.11 3.94-.15 6.15-.19h1.31c2.7-.06 5.58-.14 8.56-.37A54.249 54.249 0 0048 49.58a54.2 54.2 0 0015.18-10.87c2.14-2.07 4.11-4.18 5.94-6.17l.89-1c1.49-1.54 2.89-3.1 4.22-4.44a28.1 28.1 0 014.43-3.79A6.52 6.52 0 0182.47 22 5.27 5.27 0 0186 23.93a22.218 22.218 0 013.81 6.22 46.17 46.17 0 01-23.08 61.07v0z" stroke="#EAEAEA"/><path d="M9.578 36.502v-5.62h1.18l2.07 4.41 2.07-4.41h1.17v5.62h-.81v-4.64l-2.26 4.64h-.42l-2.21-4.64v4.64h-.79zm8.3.06a2.22 2.22 0 01-.61-.07l.09-.71c.126.041.258.061.39.06a1 1 0 001-.7 6.089 6.089 0 00.25-2.36v-1.9h4v5.62h-.81v-4.93h-2.35v1.5a5.91 5.91 0 01-.46 2.59 1.55 1.55 0 01-1.5.9zm7.34-.06v-5.62h.78v2.36h3.23v-2.36h.81v5.62h-.81v-2.58h-3.23v2.58h-.78zm8-1a.61.61 0 01.19.45.619.619 0 01-.19.46.59.59 0 01-.46.19.6.6 0 01-.46-.19.67.67 0 010-.91.6.6 0 01.46-.19.59.59 0 01.42.16l.04.03zm4.78 3.88v-8.5h.81v1a2.19 2.19 0 01.91-.82 2.6 2.6 0 011.2-.3 2.73 2.73 0 012.1.85 3.14 3.14 0 010 4.21 2.76 2.76 0 01-2.1.84c-.413 0-.82-.095-1.19-.28a2.41 2.41 0 01-.92-.81v3.83l-.81-.02zm2.88-3.38a2 2 0 001.55-.64 2.59 2.59 0 000-3.24 2 2 0 00-1.55-.65 2 2 0 00-1.55.65 2.46 2.46 0 000 3.24 2 2 0 001.55.64zm4.76 3.43a3.543 3.543 0 01-.73-.07l.08-.75c.193.069.396.103.6.1a.83.83 0 00.64-.25 2 2 0 00.44-.75l.46-1.17-2.4-5.61h.91l1.91 4.74 1.74-4.74h.89l-2.78 7.07a2.71 2.71 0 01-.68 1 1.53 1.53 0 01-1.08.38v.05zm8.65-2.74a2.73 2.73 0 01-2.45-1.17 5.05 5.05 0 01-.52-2.65c-.01-.624.017-1.249.08-1.87.058-.486.176-.962.35-1.42a2.12 2.12 0 01.79-1c.388-.308.85-.508 1.34-.58l1.71-.2c.23-.021.457-.079.67-.17a.63.63 0 00.34-.39l.58.18a1.25 1.25 0 01-.44.72 1.89 1.89 0 01-.9.32l-1.6.2a2.348 2.348 0 00-1.74.86 5 5 0 00-.5 2.65 2.55 2.55 0 012.48-1.43 2.62 2.62 0 012 .84 3 3 0 01.78 2.11 2.83 2.83 0 01-.85 2.11 2.919 2.919 0 01-2.12.84v.05zm0-.69a2 2 0 001.55-.64 2.52 2.52 0 000-3.24 2 2 0 00-1.55-.65 2 2 0 00-1.53.65 2.51 2.51 0 000 3.23 2 2 0 001.53.65zm5.71-.53a.61.61 0 01.19.45.62.62 0 01-.19.46.59.59 0 01-.46.19.6.6 0 01-.46-.19.67.67 0 010-.91.6.6 0 01.46-.19.59.59 0 01.46.19z" fill="#0D0F5A" fill-opacity=".5"/><mask id="a" style="mask-type:alpha" maskUnits="userSpaceOnUse" x="19" y="17" width="91" height="68"><path d="M51.93 83.163a45.22 45.22 0 01-30.86-56c6.93-23.99 19.45 5.63 43.43 12.57s50.38-11.41 43.44 12.57a45.222 45.222 0 01-56.01 30.86z" fill="#FFC774"/></mask><g mask="url(#a)" fill="#0D0F5A" fill-opacity=".5"><path d="M19.06 72.502h-5.84l7.28-10.5a7.45 7.45 0 01-3 .52 8.95 8.95 0 01-9-9.08 9.31 9.31 0 012.92-7.16 10.43 10.43 0 017.4-2.76 10.33 10.33 0 017.4 2.8 9.16 9.16 0 013 6.92 11.238 11.238 0 01-.72 4.12 25.239 25.239 0 01-2.2 4.24l-7.24 10.9zm5.12-19.44a5.62 5.62 0 00-1.52-4 5.11 5.11 0 00-3.92-1.64 5.19 5.19 0 00-4 1.6 5.67 5.67 0 00-1.48 4.08 5.51 5.51 0 001.48 4 5.112 5.112 0 003.88 1.56 5.27 5.27 0 004-1.56 5.47 5.47 0 001.56-4.04zm26.33-5.64c1.74 2.667 2.607 6.307 2.6 10.92-.007 4.613-.873 8.253-2.6 10.92a8.3 8.3 0 01-7.36 4 8.44 8.44 0 01-7.44-4c-1.733-2.667-2.6-6.307-2.6-10.92 0-4.613.867-8.253 2.6-10.92a8.44 8.44 0 017.44-4 8.3 8.3 0 017.36 4zM48 61.742a28.996 28.996 0 000-6.8 21.143 21.143 0 00-.72-3.48 6.25 6.25 0 00-1.56-2.88 3.33 3.33 0 00-2.56-1.12 3.48 3.48 0 00-2.6 1.12 6.59 6.59 0 00-1.56 2.88 23.454 23.454 0 00-.72 3.48 28.788 28.788 0 00-.2 3.4c.001 1.136.068 2.272.2 3.4a23.44 23.44 0 00.72 3.48 6.61 6.61 0 001.6 2.84 3.551 3.551 0 002.6 1.08 3.4 3.4 0 002.56-1.08 6.25 6.25 0 001.56-2.88c.32-1.126.548-2.277.68-3.44zm26.93-14.32c1.727 2.667 2.593 6.307 2.6 10.92.007 4.613-.86 8.253-2.6 10.92a8.32 8.32 0 01-7.36 4 8.44 8.44 0 01-7.44-4c-1.74-2.667-2.607-6.307-2.6-10.92.007-4.613.873-8.253 2.6-10.92a8.44 8.44 0 017.44-4 8.32 8.32 0 017.36 4zm-2.52 14.32a28.996 28.996 0 000-6.8 23.44 23.44 0 00-.72-3.48 6.25 6.25 0 00-1.56-2.88 3.361 3.361 0 00-2.56-1.12 3.46 3.46 0 00-2.57 1.12 6.49 6.49 0 00-1.6 2.88 21.153 21.153 0 00-.72 3.48 26.795 26.795 0 00-.2 3.4 27.364 27.364 0 00.2 3.4c.142 1.178.383 2.342.72 3.48a6.511 6.511 0 001.6 2.84 3.53 3.53 0 002.6 1.08 3.43 3.43 0 002.56-1.08 6.25 6.25 0 001.56-2.88 23.78 23.78 0 00.69-3.44zM9.578 36.502v-5.62h1.18l2.07 4.41 2.07-4.41h1.17v5.62h-.81v-4.64l-2.26 4.64h-.42l-2.21-4.64v4.64h-.79zm8.3.06a2.22 2.22 0 01-.61-.07l.09-.71c.126.041.258.061.39.06a1 1 0 001-.7 6.089 6.089 0 00.25-2.36v-1.9h4v5.62h-.81v-4.93h-2.35v1.5a5.91 5.91 0 01-.46 2.59 1.55 1.55 0 01-1.5.9zm7.34-.06v-5.62h.78v2.36h3.23v-2.36h.81v5.62h-.81v-2.58h-3.23v2.58h-.78zm8-1a.61.61 0 01.19.45.619.619 0 01-.19.46.59.59 0 01-.46.19.6.6 0 01-.46-.19.67.67 0 010-.91.6.6 0 01.46-.19.59.59 0 01.42.16l.04.03zm4.78 3.88v-8.5h.81v1a2.19 2.19 0 01.91-.82 2.6 2.6 0 011.2-.3 2.73 2.73 0 012.1.85 3.14 3.14 0 010 4.21 2.76 2.76 0 01-2.1.84c-.413 0-.82-.095-1.19-.28a2.41 2.41 0 01-.92-.81v3.83l-.81-.02zm2.88-3.38a2 2 0 001.55-.64 2.59 2.59 0 000-3.24 2 2 0 00-1.55-.65 2 2 0 00-1.55.65 2.46 2.46 0 000 3.24 2 2 0 001.55.64zm4.76 3.43a3.543 3.543 0 01-.73-.07l.08-.75c.193.069.396.103.6.1a.83.83 0 00.64-.25 2 2 0 00.44-.75l.46-1.17-2.4-5.61h.91l1.91 4.74 1.74-4.74h.89l-2.78 7.07a2.71 2.71 0 01-.68 1 1.53 1.53 0 01-1.08.38v.05zm8.65-2.74a2.73 2.73 0 01-2.45-1.17 5.05 5.05 0 01-.52-2.65c-.01-.624.017-1.249.08-1.87.058-.486.176-.962.35-1.42a2.12 2.12 0 01.79-1c.388-.308.85-.508 1.34-.58l1.71-.2c.23-.021.457-.079.67-.17a.63.63 0 00.34-.39l.58.18a1.25 1.25 0 01-.44.72 1.89 1.89 0 01-.9.32l-1.6.2a2.348 2.348 0 00-1.74.86 5 5 0 00-.5 2.65 2.55 2.55 0 012.48-1.43 2.62 2.62 0 012 .84 3 3 0 01.78 2.11 2.83 2.83 0 01-.85 2.11 2.919 2.919 0 01-2.12.84v.05zm0-.69a2 2 0 001.55-.64 2.52 2.52 0 000-3.24 2 2 0 00-1.55-.65 2 2 0 00-1.53.65 2.51 2.51 0 000 3.23 2 2 0 001.53.65zm5.71-.53a.61.61 0 01.19.45.62.62 0 01-.19.46.59.59 0 01-.46.19.6.6 0 01-.46-.19.67.67 0 010-.91.6.6 0 01.46-.19.59.59 0 01.46.19z"/></g></svg>